# Blender v2.62 (sub 0) OBJ File: 'plus.blend'
# www.blender.org
v -1.000000 -0.000000 0.000000
v -1.000000 -2.000000 0.000000
v 0.000000 -2.000000 0.000000
v -0.000000 0.000000 0.000000
v -1.000000 -0.000001 -3.000000
v -1.000000 -2.000000 -3.000000
v 0.000000 -2.000000 -3.000000
v -0.000000 0.000000 -3.000000
v -1.000000 3.000000 0.000000
v -1.000000 1.000000 0.000000
v 0.000000 1.000000 0.000000
v -0.000000 3.000000 0.000000
v -1.000000 3.000000 -3.000000
v -1.000000 0.999999 -3.000000
v 0.000000 1.000000 -3.000000
v -0.000000 3.000000 -3.000000
v -3.000000 1.000000 0.000000
v -3.000000 0.000000 0.000000
v 2.000000 0.000000 0.000000
v 1.999999 1.000000 0.000000
v -3.000001 1.000000 -3.000000
v -2.999998 -0.000000 -3.000000
v 2.000001 0.000000 -3.000000
v 2.000000 1.000000 -3.000000
vn 0.000000 0.000000 1.000000
vn 0.000000 0.000000 -1.000000
vn -1.000000 -0.000000 -0.000000
vn 0.000001 -1.000000 0.000000
vn 1.000000 0.000000 0.000000
vn -0.000000 1.000000 -0.000000
vn -1.000000 -0.000002 -0.000000
vn 0.000000 -1.000000 0.000000
vn 1.000000 0.000001 0.000000
s off
f 1//1 2//1 3//1
f 1//1 3//1 4//1
f 5//2 8//2 7//2
f 5//2 7//2 6//2
f 1//3 5//3 6//3
f 1//3 6//3 2//3
f 2//4 6//4 7//4
f 2//4 7//4 3//4
f 3//5 7//5 8//5
f 3//5 8//5 4//5
f 5//6 1//6 4//6
f 5//6 4//6 8//6
f 9//1 10//1 11//1
f 9//1 11//1 12//1
f 13//2 16//2 15//2
f 13//2 15//2 14//2
f 9//3 13//3 14//3
f 9//3 14//3 10//3
f 10//4 14//4 15//4
f 10//4 15//4 11//4
f 11//5 15//5 16//5
f 11//5 16//5 12//5
f 13//6 9//6 12//6
f 13//6 12//6 16//6
f 17//1 18//1 19//1
f 17//1 19//1 20//1
f 21//2 24//2 23//2
f 21//2 23//2 22//2
f 17//7 21//7 22//7
f 17//7 22//7 18//7
f 18//8 22//8 23//8
f 18//8 23//8 19//8
f 19//9 23//9 24//9
f 19//9 24//9 20//9
f 21//6 17//6 20//6
f 21//6 20//6 24//6
