# Blender3D v248 OBJ File: plus.blend
# www.blender3d.org
mtllib plus3.mtl
v 1.000000 5.000000 0.000000
v 1.000000 -5.000000 0.000000
v -1.000000 -4.999999 0.000000
v -1.000000 5.000002 0.000000
v 1.000000 4.999997 6.000000
v 0.999999 -5.000003 6.000000
v -1.000000 -4.999998 6.000000
v -1.000000 5.000000 6.000000
v 5.000000 1.000000 0.000000
v 5.000000 -1.000000 0.000000
v -5.000000 -1.000000 0.000000
v -4.999998 1.000000 0.000000
v 5.000002 0.999999 6.000000
v 4.999996 -1.000001 6.000000
v -5.000002 -1.000000 6.000000
v -5.000000 1.000000 6.000000
vn 0.000000 1.000000 0.000000
vn -1.000000 0.000001 -0.000000
vn -0.000000 -1.000000 -0.000000
vn 1.000000 0.000000 -0.000000
vn 1.000000 -0.000003 0.000001
vn 0.000000 0.000000 1.000000
vn 0.000000 0.000000 -1.000000
vn 0.000001 1.000000 0.000000
vn -1.000000 0.000000 -0.000000
vn -0.000002 -1.000000 -0.000001
usemtl (null)
s off
f 13//1 9//1 12//1
f 13//1 12//1 16//1
f 11//2 15//2 16//2
f 11//2 16//2 12//2
f 10//3 14//3 11//3
f 14//3 15//3 11//3
f 9//4 13//4 10//4
f 13//5 14//5 10//5
f 13//6 16//6 14//6
f 16//6 15//6 14//6
f 9//7 10//7 11//7
f 9//7 11//7 12//7
f 5//8 1//8 4//8
f 5//8 4//8 8//8
f 3//9 7//9 8//9
f 3//9 8//9 4//9
f 2//10 6//10 7//10
f 2//3 7//3 3//3
f 1//4 5//4 2//4
f 5//4 6//4 2//4
f 5//6 8//6 7//6
f 5//6 7//6 6//6
f 1//7 2//7 3//7
f 1//7 3//7 4//7
