# Blender v2.59 (sub 0) OBJ File: 'plus.blend'
# www.blender.org
o Cube_Cube.001
v 1.000000 0.000000 -5.000000
v 1.000000 0.000000 5.000000
v -1.000000 0.000000 4.999999
v -1.000000 0.000000 -5.000002
v 1.000000 6.000000 -4.999997
v 0.999999 6.000000 5.000003
v -1.000000 6.000000 4.999998
v -1.000000 6.000000 -5.000000
v 5.000000 0.000000 -1.000000
v 5.000000 0.000000 1.000000
v -5.000000 0.000000 1.000000
v -4.999998 0.000000 -1.000000
v 5.000002 6.000000 -0.999999
v 4.999996 6.000000 1.000001
v -5.000002 6.000000 1.000000
v -5.000000 6.000000 -1.000000
vn 0.000000 -1.000000 0.000000
vn 0.000000 1.000000 0.000000
vn 1.000000 0.000000 0.000000
vn -0.000001 -0.000000 1.000000
vn -1.000000 -0.000000 -0.000000
vn 0.000001 0.000000 -1.000000
vn 1.000000 0.000000 0.000002
vn -0.000000 -0.000000 1.000000
vn -1.000000 -0.000000 -0.000001
vn 0.000000 0.000000 -1.000000
usemtl 
s off
f 1//1 2//1 3//1 4//1
f 5//2 8//2 7//2 6//2
f 1//3 5//3 6//3 2//3
f 2//4 6//4 7//4 3//4
f 3//5 7//5 8//5 4//5
f 5//6 1//6 4//6 8//6
f 9//1 10//1 11//1 12//1
f 13//2 16//2 15//2 14//2
f 9//7 13//7 14//7 10//7
f 10//8 14//8 15//8 11//8
f 11//9 15//9 16//9 12//9
f 13//10 9//10 12//10 16//10
